<svg xmlns="http://www.w3.org/2000/svg" viewBox="0 0 1024 1024"><path d="M607.996 819.196c70.996 0 136.366-24.083 188.391-64.525l131.617 157.023c-87.651 70.268-198.923 112.305-320.007 112.305-282.77 0-511.999-229.232-511.999-512.001S325.227-.001 607.997-.001c117.941 0 226.566 39.879 313.132 106.888l-134.19 155.381c-50.391-36.171-112.18-57.469-178.942-57.469-169.662 0-307.2 137.538-307.2 307.2s137.538 307.197 307.2 307.197zm.067-127.992c98.969 0 179.202-80.229 179.202-179.199s-80.233-179.2-179.202-179.2-179.2 80.229-179.2 179.2 80.23 179.199 179.2 179.199z"/></svg>