<svg xmlns="http://www.w3.org/2000/svg" viewBox="0 0 1024 1024"><path d="M512.001 0C373.057 0 355.585.64 300.993 3.072c-54.592 2.56-91.776 11.136-124.353 23.808a250.711 250.711 0 0 0-90.689 59.071A251.334 251.334 0 0 0 26.88 176.64C14.208 209.152 5.568 246.399 3.072 300.8.64 355.52 0 372.928 0 512.065c0 139.007.64 156.416 3.072 211.006 2.56 54.528 11.136 91.715 23.808 124.291 13.12 33.666 30.592 62.205 59.071 90.686 28.416 28.483 56.96 46.017 90.624 59.07 32.64 12.674 69.759 21.316 124.288 23.809 54.656 2.436 72.064 3.072 211.136 3.072 139.075 0 156.417-.635 211.075-3.072 54.46-2.561 91.772-11.135 124.348-23.809a250.539 250.539 0 0 0 90.624-59.07c28.483-28.483 45.955-57.02 59.077-90.686 12.606-32.576 21.248-69.763 23.803-124.291 2.436-54.59 3.072-72 3.072-211.07 0-139.072-.635-156.481-3.072-211.137-2.555-54.464-11.197-91.712-23.803-124.223a251.332 251.332 0 0 0-59.077-90.689 250.279 250.279 0 0 0-90.686-59.071C814.722 14.209 777.472 5.569 723.006 3.073 668.354.641 651.006.001 511.872.001h.127zm-45.888 92.288h45.953c136.706 0 152.894.448 206.848 2.944 49.917 2.24 77.053 10.624 95.105 17.599 23.871 9.28 40.957 20.416 58.877 38.336s28.993 34.945 38.272 58.88c7.042 17.984 15.366 45.121 17.602 95.039 2.498 53.952 3.009 70.144 3.009 206.784 0 136.643-.511 152.894-3.009 206.848-2.236 49.917-10.624 76.991-17.602 95.043a158.126 158.126 0 0 1-38.334 58.815c-17.921 17.921-34.944 28.993-58.877 38.272-17.921 7.042-45.057 15.36-95.043 17.665-53.955 2.43-70.143 3.003-206.848 3.003-136.704 0-152.961-.573-206.913-3.003-49.921-2.306-76.992-10.624-95.039-17.665a158.588 158.588 0 0 1-58.88-38.272 158.725 158.725 0 0 1-38.4-58.883c-6.975-17.983-15.361-45.119-17.599-95.036-2.433-53.955-2.944-70.143-2.944-206.915 0-136.704.512-152.832 2.944-206.784 2.304-49.921 10.624-77.056 17.664-95.105 9.28-23.872 20.416-40.96 38.336-58.88s34.944-28.992 58.88-38.272c18.048-7.039 45.12-15.361 95.039-17.664 47.232-2.175 65.537-2.816 160.96-2.88v.128zm319.23 84.993a61.435 61.435 0 0 0-56.758 37.929c-3.091 7.454-4.68 15.443-4.68 23.512s1.589 16.058 4.68 23.512c3.085 7.454 7.608 14.228 13.315 19.933s12.481 10.231 19.933 13.319a61.442 61.442 0 0 0 84.954-56.763 61.44 61.44 0 0 0-61.444-61.44zm-273.278 71.807a262.983 262.983 0 0 0-188.599 75.547 262.962 262.962 0 0 0-58.068 288.979 262.98 262.98 0 0 0 144.777 142.534 262.984 262.984 0 0 0 285.186-59.625 262.965 262.965 0 0 0 75.576-184.494 262.972 262.972 0 0 0-258.872-262.945zm0 92.225c45.27 0 88.685 17.984 120.692 49.994 32.015 32.01 49.998 75.425 49.998 120.695s-17.983 88.684-49.998 120.695a170.693 170.693 0 0 1-241.387 0 170.688 170.688 0 0 1 0-241.39 170.69 170.69 0 0 1 120.695-49.994z"/></svg>