<svg xmlns="http://www.w3.org/2000/svg" viewBox="0 0 1024 1024"><path d="M380.364 356.814H570.52v94.72c27.392-54.477 97.638-103.424 203.163-103.424C975.972 348.11 1024 456.55 1024 655.516v368.482H819.201V700.824c0-113.303-27.396-177.2-97.128-177.2-96.718 0-136.91 68.863-136.91 177.151v323.224H380.364V356.815zM29.185 1015.292h204.799V348.11H29.185v667.182zm234.137-884.731a129.545 129.545 0 0 1-38.554 92.262 131.74 131.74 0 0 1-93.183 38.297 132.603 132.603 0 0 1-93.081-38.246A130.454 130.454 0 0 1 .001 130.561c0-34.663 13.823-67.84 38.553-92.312A132.25 132.25 0 0 1 131.635.002c34.918 0 68.403 13.773 93.133 38.247 24.678 24.472 38.553 57.651 38.553 92.312z"/></svg>